<svg width="32" height="32" viewBox="0 0 32 32" fill="none" xmlns="http://www.w3.org/2000/svg">
<g clip-path="url(#clip0_4439_12449)">
<path d="M19.0625 16C19.0625 17.6914 17.6914 19.0625 16 19.0625C14.3086 19.0625 12.9375 17.6914 12.9375 16C12.9375 14.3086 14.3086 12.9375 16 12.9375C17.6914 12.9375 19.0625 14.3086 19.0625 16Z" fill="#AEBDB7"/>
<path d="M23.1621 10.5813C23.0149 10.1823 22.78 9.82127 22.4749 9.5249C22.1786 9.21971 21.8176 8.98486 21.4185 8.83765C21.0947 8.71196 20.6085 8.56227 19.7126 8.52152C18.7436 8.47734 18.4531 8.46777 16 8.46777C13.5466 8.46777 13.2561 8.47709 12.2874 8.52127C11.3916 8.56227 10.905 8.7119 10.5816 8.83765C10.1825 8.9848 9.82144 9.21965 9.52515 9.5249C9.21996 9.82128 8.98504 10.1823 8.83765 10.5813C8.71196 10.9051 8.56227 11.3916 8.52152 12.2874C8.47734 13.2561 8.46777 13.5466 8.46777 16C8.46777 18.4531 8.47734 18.7436 8.52152 19.7126C8.56227 20.6084 8.71196 21.0948 8.83765 21.4185C8.98495 21.8175 9.21979 22.1785 9.5249 22.4749C9.82123 22.7801 10.1822 23.0149 10.5813 23.1621C10.9051 23.2881 11.3916 23.4378 12.2874 23.4785C13.2561 23.5227 13.5464 23.532 15.9998 23.532C18.4534 23.532 18.7439 23.5227 19.7124 23.4785C20.6081 23.4378 21.0948 23.2881 21.4185 23.1621C21.8147 23.0093 22.1746 22.7752 22.4749 22.4749C22.7752 22.1746 23.0093 21.8147 23.1621 21.4185C23.2878 21.0947 23.4375 20.6085 23.4785 19.7126C23.5227 18.7436 23.532 18.4531 23.532 16C23.532 13.5466 23.5227 13.2561 23.4785 12.2874C23.4378 11.3916 23.2881 10.905 23.1621 10.5813ZM16 20.7176C13.3943 20.7176 11.282 18.6055 11.282 15.9998C11.282 13.3941 13.3943 11.282 16 11.282C18.6055 11.282 20.7178 13.3941 20.7178 15.9998C20.7178 18.6055 18.6055 20.7176 16 20.7176ZM20.9043 12.198C20.2955 12.198 19.8018 11.7043 19.8018 11.0955C19.8018 10.4867 20.2955 9.99296 20.9043 9.99296C21.5132 9.99296 22.0068 10.4866 22.0068 11.0955C22.0066 11.7043 21.5132 12.198 20.9043 12.198Z" fill="#AEBDB7"/>
<path d="M16 0C7.16481 0 0 7.16481 0 16C0 24.8352 7.16481 32 16 32C24.8352 32 32 24.8352 32 16C32 7.16481 24.8352 0 16 0ZM25.1321 19.7878C25.0877 20.7659 24.9321 21.4336 24.7051 22.0181C24.469 22.6284 24.1081 23.1827 23.6454 23.6454C23.1827 24.1081 22.6284 24.469 22.0181 24.7051C21.4338 24.9321 20.7659 25.0874 19.7881 25.1321C18.8084 25.1768 18.4954 25.1875 16.0002 25.1875C13.5049 25.1875 13.1921 25.1768 12.2121 25.1321C11.2344 25.0874 10.5664 24.9321 9.98213 24.7051C9.36901 24.4744 8.81363 24.1127 8.35475 23.6453C7.88742 23.1864 7.52583 22.6311 7.29519 22.0181C7.06812 21.4338 6.91262 20.7659 6.86819 19.7881C6.823 18.8081 6.8125 18.4951 6.8125 16C6.8125 13.5049 6.823 13.1919 6.86794 12.2122C6.91231 11.2341 7.06762 10.5664 7.29469 9.98194C7.5254 9.36887 7.88715 8.81355 8.35469 8.35475C8.81351 7.88726 9.36885 7.52557 9.98194 7.29494C10.5664 7.06787 11.2341 6.91262 12.2122 6.86794C13.1919 6.82325 13.5049 6.8125 16 6.8125C18.4951 6.8125 18.8081 6.82325 19.7878 6.86812C20.7659 6.91262 21.4336 7.06787 22.0181 7.29469C22.6312 7.52545 23.1866 7.88719 23.6456 8.35469C24.1129 8.81357 24.4745 9.3689 24.7051 9.98194C24.9324 10.5664 25.0876 11.2341 25.1323 12.2122C25.177 13.1919 25.1875 13.5049 25.1875 16C25.1875 18.4951 25.177 18.8081 25.1321 19.7878Z" fill="#AEBDB7"/>
</g>
<defs>
<clipPath id="clip0_4439_12449">
<rect width="32" height="32" fill="white"/>
</clipPath>
</defs>
</svg>
