<svg width="32" height="32" viewBox="0 0 32 32" fill="none" xmlns="http://www.w3.org/2000/svg">
<g clip-path="url(#clip0_4439_12454)">
<path d="M16 0C7.17764 0 0 7.17764 0 16C0 24.8217 7.17764 32 16 32C24.8217 32 32 24.8217 32 16C32 7.17764 24.823 0 16 0ZM23.1377 12.338C23.1448 12.4966 23.1486 12.6564 23.1486 12.8162C23.1486 17.6828 19.4454 23.2924 12.6699 23.2924C10.5902 23.2924 8.65415 22.6846 7.02489 21.6392C7.31298 21.6734 7.60622 21.6908 7.90333 21.6908C9.62926 21.6908 11.2166 21.1017 12.4772 20.1144C11.7087 20.0999 10.9639 19.8456 10.3471 19.3869C9.7302 18.9283 9.27215 18.2883 9.03698 17.5564C9.58878 17.6619 10.1573 17.6407 10.6997 17.4946C9.86625 17.3261 9.11671 16.8745 8.57832 16.2163C8.03994 15.5581 7.74589 14.7339 7.74607 13.8835L7.74672 13.8371C8.25784 14.1212 8.8295 14.279 9.414 14.2973C8.90975 13.9608 8.49642 13.5051 8.21072 12.9705C7.92503 12.4358 7.77582 11.8389 7.77636 11.2327C7.77636 10.5573 7.95746 9.92443 8.27455 9.38049C9.19918 10.5183 10.3527 11.4489 11.6603 12.112C12.968 12.7751 14.4004 13.1558 15.8647 13.2294C15.8009 12.954 15.7691 12.6722 15.7699 12.3896C15.7695 11.6508 15.9912 10.929 16.4064 10.3179C16.8215 9.70682 17.4109 9.23472 18.0979 8.96296C18.7848 8.69121 19.5377 8.63235 20.2585 8.79404C20.9794 8.95574 21.6349 9.33051 22.14 9.86965C22.9652 9.7077 23.7565 9.40534 24.4795 8.97575C24.2039 9.82913 23.6276 10.5533 22.858 11.0136C23.5881 10.9278 24.3012 10.7325 24.9732 10.4342C24.4805 11.1738 23.8587 11.8187 23.1377 12.338Z" fill="#AEBDB7"/>
</g>
<defs>
<clipPath id="clip0_4439_12454">
<rect width="32" height="32" fill="white"/>
</clipPath>
</defs>
</svg>
