<svg width="194" height="58" viewBox="0 0 194 58" fill="none" xmlns="http://www.w3.org/2000/svg">
<g clip-path="url(#clip0_4439_12473)">
<path d="M192.687 50.8663C192.687 52.3231 192.106 53.7202 191.073 54.7498C190.039 55.7794 188.637 56.3571 187.176 56.3556H6.79857C3.75423 56.3587 1.28351 53.9013 1.27954 50.8663V7.09116C1.28351 4.05497 3.75307 1.59551 6.79857 1.59473H187.174C188.636 1.59473 190.038 2.17386 191.072 3.20468C192.106 4.2355 192.687 5.63355 192.687 7.09116V50.8663Z" fill="white"/>
<path d="M6.79851 57.6318C3.04861 57.631 0.00713504 54.6039 0 50.8655V7.0918C0.00554737 3.35155 3.04679 0.321516 6.79851 0.318359H187.174C190.925 0.323091 193.965 3.3522 193.973 7.0918V50.8655C193.975 54.5976 190.92 57.6318 187.175 57.6318H6.79851Z" fill="black"/>
<path d="M192.687 50.8663C192.687 52.3231 192.106 53.7202 191.073 54.7498C190.039 55.7794 188.637 56.3571 187.176 56.3556H6.79857C3.75423 56.3587 1.28351 53.9013 1.27954 50.8663V7.09116C1.28351 4.05497 3.75307 1.59551 6.79857 1.59473H187.174C188.636 1.59473 190.038 2.17386 191.072 3.20468C192.106 4.2355 192.687 5.63355 192.687 7.09116V50.8663Z" fill="black"/>
<path d="M43.3126 28.6731C43.2709 24.0538 47.1065 21.8065 47.2819 21.7019C45.1097 18.5445 41.7428 18.1131 40.5596 18.0787C37.7318 17.782 34.9888 19.7656 33.5483 19.7656C32.0791 19.7656 29.8608 18.1074 27.47 18.1561C24.3935 18.2034 21.5154 19.9792 19.9369 22.7367C16.6793 28.3593 19.1088 36.6218 22.2299 41.1666C23.7912 43.3938 25.6155 45.8776 28.0034 45.7902C30.3395 45.6956 31.2122 44.3068 34.0314 44.3068C36.8246 44.3068 37.6441 45.7902 40.0794 45.7343C42.5866 45.6956 44.1651 43.4985 45.6718 41.2526C47.476 38.7029 48.2006 36.189 48.2293 36.06C48.1718 36.0399 43.3615 34.2083 43.3126 28.6731ZM38.7122 15.089C39.9687 13.5225 40.8284 11.3913 40.5898 9.22852C38.7712 9.30878 36.4969 10.4826 35.1872 12.0147C34.0285 13.3648 32.9934 15.5777 33.2608 17.6588C35.3036 17.8107 37.4011 16.6311 38.7122 15.089Z" fill="white"/>
<path d="M187.175 0.318359H90.5596L128.402 57.6318H187.175C190.926 57.6286 193.966 54.6003 193.973 50.8612V7.0918C193.967 3.35187 190.926 0.322304 187.175 0.318359Z" fill="url(#paint0_linear_4439_12473)"/>
<path d="M77.1497 45.47H73.8849L72.0965 39.8675H65.8802L64.1766 45.47H60.998L67.1583 26.3966H70.9622L77.1497 45.47ZM71.5574 37.517L69.9401 32.5366C69.769 32.0278 69.4469 30.8296 68.9754 28.9435H68.9179C68.7281 29.7547 68.4248 30.9528 68.0093 32.5366L66.4193 37.517H71.5574ZM92.9607 38.4243C92.9607 40.7633 92.3238 42.6122 91.0486 43.9694C89.9072 45.1776 88.4882 45.781 86.7962 45.781C84.9689 45.781 83.655 45.1318 82.8571 43.8304V51.0467H79.7921V36.2372C79.7921 34.7681 79.7533 33.2618 79.6785 31.7168H82.374L82.5451 33.8967H82.6026C83.6248 32.2542 85.176 31.433 87.2576 31.433C88.885 31.433 90.2436 32.0736 91.3304 33.3564C92.4158 34.642 92.9607 36.3303 92.9607 38.4243ZM89.8382 38.5361C89.8382 37.1974 89.5363 36.0938 88.9296 35.2239C88.2668 34.3195 87.377 33.8666 86.2614 33.8666C85.5052 33.8666 84.818 34.1188 84.2041 34.6162C83.5888 35.1178 83.1863 35.7728 82.998 36.584C82.9139 36.8874 82.8661 37.1996 82.8556 37.5142V39.8088C82.8556 40.8077 83.1633 41.6519 83.7786 42.3427C84.3939 43.0307 85.1932 43.3761 86.1765 43.3761C87.331 43.3761 88.2295 42.9303 88.8721 42.046C89.5161 41.1589 89.8382 39.9893 89.8382 38.5361ZM108.828 38.4243C108.828 40.7633 108.191 42.6122 106.916 43.9694C105.773 45.1776 104.355 45.781 102.662 45.781C100.835 45.781 99.5205 45.1318 98.7227 43.8304V51.0467H95.6577V36.2372C95.6577 34.7681 95.6188 33.2618 95.5441 31.7168H98.2396L98.4107 33.8967H98.4682C99.4889 32.2542 101.04 31.433 103.123 31.433C104.749 31.433 106.108 32.0736 107.197 33.3564C108.281 34.642 108.828 36.3303 108.828 38.4243ZM105.704 38.5361C105.704 37.1974 105.4 36.0938 104.794 35.2239C104.131 34.3195 103.244 33.8666 102.128 33.8666C101.372 33.8666 100.685 34.1188 100.068 34.6162C99.453 35.1178 99.0519 35.7728 98.8636 36.584C98.7701 36.9624 98.7198 37.2705 98.7198 37.5142V39.8088C98.7198 40.8077 99.0289 41.6519 99.6413 42.3427C100.257 43.0292 101.056 43.3761 102.042 43.3761C103.198 43.3761 104.096 42.9303 104.738 42.046C105.382 41.1589 105.704 39.9893 105.704 38.5361ZM126.568 40.1198C126.568 41.7436 125.999 43.0636 124.867 44.0827C123.622 45.1948 121.884 45.7524 119.656 45.7524C117.597 45.7524 115.947 45.3568 114.702 44.5642L115.411 42.0174C116.755 42.8114 118.231 43.2069 119.838 43.2069C120.994 43.2069 121.893 42.9461 122.534 42.4287C123.177 41.9099 123.502 41.2162 123.502 40.3505C123.502 39.5751 123.233 38.9259 122.705 38.397C122.175 37.8696 121.298 37.378 120.066 36.9265C116.716 35.6811 115.04 33.8594 115.04 31.4631C115.04 29.898 115.632 28.6167 116.814 27.6148C117.995 26.6145 119.562 26.1143 121.512 26.1143C123.253 26.1143 124.703 26.4167 125.855 27.0201L125.086 29.511C124.002 28.9263 122.778 28.6339 121.41 28.6339C120.329 28.6339 119.48 28.899 118.874 29.4264C118.363 29.898 118.105 30.4727 118.105 31.1549C118.105 31.9074 118.399 32.5323 118.986 33.0224C119.495 33.4739 120.424 33.9655 121.766 34.4929C123.414 35.1551 124.624 35.9261 125.399 36.8119C126.18 37.6976 126.568 38.8026 126.568 40.1198ZM136.728 34.0099H133.349V40.6873C133.349 42.3857 133.944 43.2327 135.138 43.2327C135.685 43.2327 136.14 43.1869 136.499 43.0909L136.584 45.4113C135.98 45.6363 135.185 45.7495 134.2 45.7495C132.99 45.7495 132.044 45.3812 131.361 44.6445C130.681 43.9078 130.339 42.6738 130.339 40.9367V34.0042H128.326V31.711H130.339V29.1928L133.349 28.287V31.711H136.728V34.0099ZM151.941 38.4802C151.941 40.5942 151.334 42.3298 150.123 43.6871C148.857 45.0845 147.172 45.781 145.072 45.781C143.045 45.781 141.433 45.1117 140.231 43.7745C139.029 42.4344 138.428 40.7461 138.428 38.7095C138.428 36.5783 139.049 34.8326 140.287 33.4753C141.528 32.1166 143.198 31.4373 145.299 31.4373C147.323 31.4373 148.949 32.108 150.179 33.4467C151.355 34.7452 151.941 36.422 151.941 38.4802ZM148.763 38.5504C148.763 37.2906 148.49 36.2099 147.943 35.3056C147.3 34.2134 146.38 33.6674 145.188 33.6674C143.96 33.6674 143.019 34.2134 142.377 35.3056C141.828 36.2099 141.555 37.3092 141.555 38.6077C141.555 39.869 141.828 40.9525 142.377 41.854C143.04 42.9461 143.965 43.4922 145.162 43.4922C146.334 43.4922 147.252 42.9346 147.917 41.8267C148.48 40.9009 148.763 39.8131 148.763 38.5504ZM161.908 34.4041C161.589 34.3467 161.265 34.3184 160.941 34.3195C159.863 34.3195 159.029 34.7237 158.443 35.5377C157.934 36.2544 157.678 37.1602 157.678 38.2537V45.47H154.613V36.048C154.616 34.6042 154.586 33.1606 154.524 31.7182H157.194L157.306 34.3496H157.391C157.715 33.4452 158.224 32.7157 158.923 32.1697C159.563 31.6925 160.34 31.4341 161.138 31.433C161.422 31.433 161.678 31.453 161.905 31.4889L161.908 34.4041ZM175.615 37.9427C175.623 38.4072 175.586 38.8714 175.503 39.3286H166.308C166.343 40.6873 166.788 41.7279 167.642 42.4445C168.417 43.0837 169.419 43.4047 170.65 43.4047C172.011 43.4047 173.253 43.1898 174.37 42.7555L174.85 44.8752C173.545 45.4428 172.004 45.7251 170.226 45.7251C168.086 45.7251 166.407 45.0974 165.185 43.8447C163.966 42.5907 163.355 40.9052 163.355 38.794C163.355 36.7216 163.923 34.9945 165.06 33.6172C166.251 32.1467 167.859 31.4115 169.883 31.4115C171.872 31.4115 173.377 32.1467 174.399 33.6172C175.208 34.7824 175.615 36.2271 175.615 37.9427ZM172.693 37.1501C172.714 36.2429 172.513 35.4618 172.097 34.8011C171.567 33.9497 170.75 33.5255 169.656 33.5255C168.654 33.5255 167.838 33.9397 167.217 34.771C166.706 35.4317 166.403 36.2257 166.31 37.1473L172.693 37.1501Z" fill="white"/>
<path d="M64.9959 19.6527C64.1434 19.6527 63.4059 19.6112 62.792 19.5409V10.3195C63.6506 10.1873 64.5182 10.1221 65.3869 10.1245C68.9019 10.1245 70.5206 11.8488 70.5206 14.6594C70.5206 17.9013 68.6086 19.6527 64.9959 19.6527ZM65.5105 11.307C65.0361 11.307 64.6321 11.3357 64.2972 11.4045V18.4144C64.4783 18.4431 64.8262 18.456 65.315 18.456C67.6181 18.456 68.9292 17.1489 68.9292 14.7009C68.9292 12.5181 67.7432 11.307 65.5105 11.307ZM75.5653 19.723C73.5842 19.723 72.3004 18.2482 72.3004 16.2459C72.3004 14.1592 73.6115 12.6715 75.6774 12.6715C77.6297 12.6715 78.9422 14.076 78.9422 16.1356C78.9422 18.2482 77.5894 19.723 75.5653 19.723ZM75.6228 13.7693C74.5345 13.7693 73.8372 14.784 73.8372 16.2029C73.8372 17.5946 74.5489 18.6093 75.6084 18.6093C76.6679 18.6093 77.3795 17.5244 77.3795 16.1743C77.3795 14.7984 76.6823 13.7693 75.6228 13.7693ZM90.2391 12.8105L88.1186 19.5696H86.737L85.8586 16.6343C85.6402 15.9164 85.4584 15.1878 85.3138 14.4515H85.285C85.1743 15.1882 84.9644 15.9263 84.7416 16.6343L83.8071 19.5696H82.4112L80.4158 12.8105H81.9641L82.7318 16.0238C82.9129 16.7891 83.0653 17.5115 83.1918 18.1937H83.2206C83.3313 17.6247 83.5124 16.9138 83.7784 16.0381L84.7416 12.8119H85.9693L86.8908 15.9693C87.1137 16.7347 87.2948 17.4857 87.4357 18.1951H87.476C87.5737 17.5 87.7275 16.7619 87.936 15.9693L88.7598 12.8119L90.2391 12.8105ZM98.0454 19.5696H96.5387V15.6884C96.5387 14.4931 96.0787 13.894 95.1715 13.894C94.2788 13.894 93.6649 14.6594 93.6649 15.5494V19.5696H92.1583V14.7425C92.1583 14.1448 92.1439 13.5042 92.1022 12.8091H93.4277L93.4982 13.8524H93.5398C93.9453 13.1301 94.7676 12.6715 95.6891 12.6715C97.1123 12.6715 98.0468 13.7564 98.0468 15.5222L98.0454 19.5696ZM102.2 19.5696H100.692V9.70898H102.2V19.5696ZM107.693 19.723C105.714 19.723 104.428 18.2482 104.428 16.2459C104.428 14.1592 105.739 12.6715 107.804 12.6715C109.758 12.6715 111.069 14.076 111.069 16.1356C111.07 18.2482 109.716 19.723 107.693 19.723ZM107.749 13.7693C106.661 13.7693 105.964 14.784 105.964 16.2029C105.964 17.5946 106.677 18.6093 107.733 18.6093C108.794 18.6093 109.505 17.5244 109.505 16.1743C109.506 14.7984 108.81 13.7693 107.749 13.7693ZM117.009 19.5696L116.9 18.7914H116.86C116.399 19.4177 115.728 19.723 114.877 19.723C113.662 19.723 112.8 18.8745 112.8 17.7336C112.8 16.0654 114.25 15.2026 116.762 15.2026V15.0779C116.762 14.1878 116.289 13.7421 115.354 13.7421C114.686 13.7421 114.099 13.9098 113.583 14.2437L113.277 13.2562C113.904 12.8664 114.686 12.6715 115.604 12.6715C117.376 12.6715 118.27 13.6031 118.27 15.4677V17.9572C118.27 18.6394 118.3 19.1683 118.368 19.571L117.009 19.5696ZM116.802 16.2029C115.129 16.2029 114.289 16.6071 114.289 17.5659C114.289 18.2754 114.722 18.6222 115.323 18.6222C116.089 18.6222 116.802 18.0389 116.802 17.2463V16.2029ZM125.586 19.5696L125.515 18.4846H125.474C125.041 19.3045 124.314 19.723 123.297 19.723C121.663 19.723 120.452 18.2897 120.452 16.2732C120.452 14.1592 121.707 12.67 123.421 12.67C124.328 12.67 124.971 12.9753 125.333 13.5887H125.363V9.70898H126.871V17.748C126.871 18.4015 126.887 19.0135 126.927 19.5696H125.586ZM125.363 15.5924C125.363 14.6465 124.735 13.8396 123.776 13.8396C122.659 13.8396 121.976 14.827 121.976 16.2173C121.976 17.5803 122.685 18.5133 123.746 18.5133C124.693 18.5133 125.363 17.6921 125.363 16.7189V15.5924ZM136.433 19.723C134.453 19.723 133.169 18.2482 133.169 16.2459C133.169 14.1592 134.48 12.6715 136.545 12.6715C138.499 12.6715 139.81 14.076 139.81 16.1356C139.811 18.2482 138.458 19.723 136.433 19.723ZM136.489 13.7693C135.402 13.7693 134.705 14.784 134.705 16.2029C134.705 17.5946 135.416 18.6093 136.474 18.6093C137.535 18.6093 138.246 17.5244 138.246 16.1743C138.248 14.7984 137.551 13.7693 136.489 13.7693ZM147.912 19.5696H146.404V15.6884C146.404 14.4931 145.944 13.894 145.037 13.894C144.144 13.894 143.532 14.6594 143.532 15.5494V19.5696H142.024V14.7425C142.024 14.1448 142.009 13.5042 141.968 12.8091H143.293L143.364 13.8524H143.405C143.809 13.1301 144.633 12.67 145.553 12.67C146.976 12.67 147.912 13.755 147.912 15.5207V19.5696ZM158.049 13.937H156.391V17.2191C156.391 18.0547 156.682 18.4717 157.268 18.4717C157.534 18.4717 157.757 18.4431 157.937 18.4015L157.978 19.5424C157.687 19.6542 157.295 19.7101 156.81 19.7101C155.622 19.7101 154.912 19.0565 154.912 17.3452V13.937H153.923V12.8105H154.912V11.5722L156.391 11.1264V12.8091H158.049V13.937ZM166.025 19.5696H164.52V15.7171C164.52 14.5074 164.061 13.8954 163.152 13.8954C162.372 13.8954 161.644 14.4243 161.644 15.4949V19.5696H160.139V9.70898H161.644V13.7693H161.674C162.149 13.0326 162.836 12.67 163.713 12.67C165.148 12.67 166.025 13.7822 166.025 15.5494V19.5696ZM174.196 16.5512H169.675C169.704 17.8311 170.553 18.5534 171.811 18.5534C172.48 18.5534 173.095 18.4417 173.638 18.2338L173.873 19.2772C173.232 19.5553 172.477 19.6943 171.598 19.6943C169.478 19.6943 168.223 18.3585 168.223 16.2875C168.223 14.2151 169.508 12.6571 171.429 12.6571C173.161 12.6571 174.248 13.937 174.248 15.8704C174.258 16.0986 174.24 16.3271 174.196 16.5512ZM172.815 15.4806C172.815 14.4372 172.287 13.7005 171.324 13.7005C170.458 13.7005 169.774 14.4515 169.676 15.4806H172.815Z" fill="white"/>
</g>
<defs>
<linearGradient id="paint0_linear_4439_12473" x1="5261.09" y1="5746.88" x2="5261.09" y2="-14923.1" gradientUnits="userSpaceOnUse">
<stop stop-color="#1A1A1A" stop-opacity="0.1"/>
<stop offset="0.123" stop-color="#212121" stop-opacity="0.151"/>
<stop offset="0.308" stop-color="#353535" stop-opacity="0.227"/>
<stop offset="0.532" stop-color="#575757" stop-opacity="0.318"/>
<stop offset="0.783" stop-color="#858585" stop-opacity="0.421"/>
<stop offset="1" stop-color="#B3B3B3" stop-opacity="0.51"/>
</linearGradient>
<clipPath id="clip0_4439_12473">
<rect width="194" height="57.3182" fill="white" transform="translate(0 0.318359)"/>
</clipPath>
</defs>
</svg>
