<svg width="12" height="11" viewBox="0 0 12 11" fill="none" xmlns="http://www.w3.org/2000/svg">
<path opacity="0.5" d="M10.5 1.16667H8.65083L7.58333 0H4.08333L3.01583 1.16667H1.16667C0.857247 1.16667 0.560501 1.28958 0.341709 1.50838C0.122916 1.72717 0 2.02391 0 2.33333V9.33333C0 9.64275 0.122916 9.9395 0.341709 10.1583C0.560501 10.3771 0.857247 10.5 1.16667 10.5H10.5C10.8094 10.5 11.1062 10.3771 11.325 10.1583C11.5438 9.9395 11.6667 9.64275 11.6667 9.33333V2.33333C11.6667 2.02391 11.5438 1.72717 11.325 1.50838C11.1062 1.28958 10.8094 1.16667 10.5 1.16667ZM10.5 9.33333H1.16667V2.33333H3.52917L4.59667 1.16667H7.07L8.1375 2.33333H10.5V9.33333ZM5.83333 2.91667C5.05979 2.91667 4.31792 3.22396 3.77094 3.77094C3.22396 4.31792 2.91667 5.05978 2.91667 5.83333C2.91667 6.60688 3.22396 7.34875 3.77094 7.89573C4.31792 8.44271 5.05979 8.75 5.83333 8.75C6.60688 8.75 7.34875 8.44271 7.89573 7.89573C8.44271 7.34875 8.75 6.60688 8.75 5.83333C8.75 5.05978 8.44271 4.31792 7.89573 3.77094C7.34875 3.22396 6.60688 2.91667 5.83333 2.91667ZM5.83333 7.58333C5.3692 7.58333 4.92409 7.39896 4.5959 7.07077C4.26771 6.74258 4.08333 6.29746 4.08333 5.83333C4.08333 5.3692 4.26771 4.92408 4.5959 4.5959C4.92409 4.26771 5.3692 4.08333 5.83333 4.08333C6.29746 4.08333 6.74258 4.26771 7.07077 4.5959C7.39896 4.92408 7.58333 5.3692 7.58333 5.83333C7.58333 6.29746 7.39896 6.74258 7.07077 7.07077C6.74258 7.39896 6.29746 7.58333 5.83333 7.58333Z" fill="black"/>
</svg>
