<svg width="35" height="34" viewBox="0 0 35 34" fill="none" xmlns="http://www.w3.org/2000/svg">
<path fill-rule="evenodd" clip-rule="evenodd" d="M4.89678 16.0988C5.01689 17.6117 5.41707 19.1071 6.09693 20.5045L3.74433 21.8358C2.83182 20.025 2.31088 18.0723 2.18173 16.0989L4.89678 16.0988ZM18.3408 5.56976C20.3316 5.56976 21.9454 7.15147 21.9454 9.10257C21.9454 11.0537 20.3316 12.6354 18.3408 12.6354C16.3501 12.6354 14.7363 11.0537 14.7363 9.10257C14.7363 7.15147 16.3501 5.56976 18.3408 5.56976ZM12.0179 19.5791H24.6638C24.7614 19.5795 24.8578 19.5583 24.9459 19.5171C25.0339 19.4759 25.1114 19.4157 25.1724 19.3411C25.2335 19.2665 25.2765 19.1793 25.2984 19.0861C25.3202 18.9929 25.3204 18.896 25.2987 18.8028C24.5875 15.6789 21.7425 13.3437 18.3408 13.3437C14.9391 13.3437 12.0941 15.6789 11.383 18.8028C11.3613 18.8961 11.3615 18.9929 11.3833 19.0861C11.4052 19.1793 11.4483 19.2665 11.5093 19.3411C11.5703 19.4158 11.6478 19.4759 11.7358 19.5171C11.8239 19.5583 11.9203 19.5795 12.0179 19.5791ZM17.2893 25.9463C17.906 26.0201 18.4125 25.8382 18.5842 25.2104C18.7385 24.6459 18.3745 24.1163 17.8319 23.9302C16.0808 23.6155 14.3843 23.0144 13.0501 22.5416C11.1356 21.8632 10.6358 21.7037 8.74729 22.7753L5.3505 24.7028L8.17129 29.5878L8.39424 29.4616C8.52609 29.3871 8.68272 29.367 8.82969 29.4057L16.4887 31.4153C17.6003 31.7072 18.2747 31.5902 19.213 31.0238L29.7309 24.6763C30.0586 24.4786 30.2196 24.0195 30.1722 23.5706C30.1333 23.2033 29.9513 22.8711 29.6065 22.6999C29.0594 22.4284 28.1092 22.5095 26.6394 23.3484L20.8212 26.6698C20.3538 26.9365 19.8728 27.1061 19.3735 27.1883C17.9309 27.4257 15.7582 26.7593 14.4663 26.3976C14.0511 26.2815 13.6296 26.1635 13.218 26.0554C13.1438 26.037 13.0742 26.0043 13.013 25.9593C12.9519 25.9143 12.9005 25.8579 12.8617 25.7933C12.823 25.7286 12.7978 25.6571 12.7875 25.5828C12.7772 25.5086 12.7821 25.433 12.8019 25.3606C12.8216 25.2882 12.8558 25.2204 12.9025 25.161C12.9492 25.1017 13.0075 25.052 13.0739 25.015C13.1404 24.9779 13.2137 24.9541 13.2896 24.945C13.3655 24.9359 13.4425 24.9416 13.5161 24.9619C14.7718 25.2916 16.0167 25.688 17.2893 25.9463ZM3.59841 23.9696L8.19658 31.9325C8.41889 32.3175 8.2794 32.8108 7.88653 33.0287L6.32249 33.8963C5.92962 34.1142 5.42632 33.9774 5.20401 33.5924L0.605834 25.6295C0.383525 25.2444 0.52301 24.7511 0.915882 24.5332L2.47992 23.6657C2.87272 23.4478 3.3761 23.5845 3.59841 23.9696ZM2.54403 25.1632C2.47147 25.1736 2.4017 25.1979 2.33872 25.2347C2.27574 25.2715 2.22078 25.3201 2.17697 25.3777C2.13317 25.4354 2.10138 25.5009 2.08342 25.5706C2.06546 25.6403 2.06168 25.7128 2.07231 25.7839C2.08828 25.891 2.13631 25.9911 2.21031 26.0714C2.28431 26.1518 2.38097 26.2088 2.48806 26.2354C2.59515 26.2619 2.70785 26.2567 2.81193 26.2204C2.916 26.1842 3.00677 26.1185 3.07275 26.0317C3.13873 25.9449 3.17696 25.8408 3.1826 25.7327C3.18825 25.6246 3.16105 25.5173 3.10446 25.4243C3.04786 25.3313 2.96441 25.2569 2.86465 25.2104C2.7649 25.1639 2.65332 25.1475 2.54403 25.1632ZM2.18173 14.1428C2.31594 12.0951 2.86528 10.1566 3.74852 8.40833L6.11521 9.74751C5.4644 11.0952 5.04588 12.5774 4.9074 14.1428H2.18173ZM4.74761 6.71507C5.88011 5.05374 7.33495 3.62695 9.0293 2.51593L10.3817 4.8117C9.09651 5.6821 7.98692 6.7808 7.10621 8.04963L4.74761 6.71507ZM10.7568 1.5363C12.5391 0.670791 14.5163 0.131396 16.609 0.000354107V2.6605C14.9987 2.78049 13.4829 3.18856 12.1087 3.83123L10.7568 1.5363ZM18.6047 0V2.66092C25.1823 3.15824 30.3616 8.54667 30.3616 15.1208C30.3616 15.6471 30.3282 16.1658 30.2637 16.6749H29.3724C29.1116 16.6749 28.9662 16.9687 29.1275 17.1695L31.535 20.1665C31.6598 20.3218 31.9001 20.3219 32.0249 20.1665L34.4324 17.1695C34.5937 16.9687 34.4482 16.675 34.1875 16.6749H32.9906C33.0442 16.1586 33.0711 15.6399 33.071 15.1208C33.0709 7.07971 26.6798 0.502633 18.6047 0Z" fill="#3299CA"/>
</svg>
