<svg width="36" height="37" viewBox="0 0 36 37" fill="none" xmlns="http://www.w3.org/2000/svg">
<g clip-path="url(#clip0_1401_9759)">
<path d="M33.4066 17.727C33.353 17.4589 33.0848 17.2444 32.8167 17.298L27.7227 18.0487C27.5619 18.0487 27.4546 18.1559 27.3474 18.2632C27.2402 18.3704 27.2402 18.5313 27.2402 18.6385V18.7458C26.704 18.6921 26.1141 18.6921 25.5243 18.6921C19.9477 17.727 15.8725 18.3704 13.5132 20.6761C12.8697 20.4616 12.2799 20.3008 11.6365 20.1935L11.6901 20.0863C11.7973 19.8182 11.6901 19.4965 11.422 19.3892L7.02506 17.3516C6.91782 17.298 6.75696 17.298 6.59609 17.3516C6.48885 17.4052 6.38161 17.5125 6.27437 17.6197L1.18038 29.7381C1.07314 30.0062 1.18038 30.3279 1.44848 30.4351L5.95264 32.4727C6.00626 32.5264 6.11351 32.5264 6.16713 32.5264C6.22075 32.5264 6.27437 32.5264 6.38161 32.4727C6.48885 32.4191 6.59609 32.3119 6.70334 32.2046L6.91782 31.6148C9.06266 33.2234 11.4756 34.6712 14.103 35.9045L18.1782 37.8348C18.5536 37.9957 18.8753 38.0493 19.2506 38.0493C20.1086 38.0493 20.8593 37.6203 21.181 36.8697C21.2882 36.6015 21.3419 36.3334 21.3419 36.0653C21.3419 35.9581 21.3419 35.8509 21.2882 35.7436C21.5563 35.7972 21.8244 35.8509 22.0389 35.8509C23.0041 35.8509 23.7548 35.4755 24.0765 34.8321C24.291 34.3495 24.291 33.8669 24.1301 33.3843C24.8272 33.277 25.417 32.9017 25.6852 32.2582C25.7388 32.151 25.7388 32.0974 25.7924 31.9901C26.9721 31.6684 28.0981 31.2931 29.2778 30.8105L29.385 31.6148C29.4386 31.8829 29.6531 32.0438 29.9212 32.0438H30.0285L35.1224 31.2931C35.2833 31.2931 35.3905 31.1858 35.4978 31.0786C35.605 30.9713 35.605 30.8105 35.605 30.7032L33.4066 17.727ZM7.50765 21.2123L7.93662 20.3544C8.04386 20.0863 8.41921 19.979 8.63369 20.1399C8.84817 20.3008 9.00904 20.6225 8.84817 20.837L8.41921 21.6949C8.31197 21.8558 8.1511 21.963 7.93662 21.963C7.82938 21.963 7.77576 21.963 7.66851 21.9094C7.50765 21.8022 7.40041 21.4804 7.50765 21.2123ZM24.4519 29.5236C24.3983 29.5236 24.3983 29.47 24.3446 29.47L19.4651 27.2715C19.197 27.1643 18.8753 27.2715 18.7681 27.5396C18.6608 27.8077 18.7681 28.1294 19.0362 28.2367L23.862 30.4351L23.9157 30.4888C23.9693 30.4888 24.0229 30.5424 24.0229 30.5424C24.4519 30.7569 24.72 31.1858 24.72 31.5612V31.6148C24.72 31.722 24.72 31.7757 24.6664 31.8829C24.4519 32.3655 23.8084 32.5264 23.165 32.2582C23.0577 32.151 22.8969 32.0974 22.7896 32.0438L17.8565 29.7917C17.5884 29.6844 17.2667 29.7917 17.1594 30.0598C17.0522 30.3279 17.1594 30.6496 17.4275 30.7569L22.3607 33.0089C22.4143 33.0626 22.5215 33.1162 22.5751 33.1162L22.6288 33.1698C23.0577 33.4915 23.2186 34.0277 23.0577 34.4031C22.9505 34.6176 22.5215 34.7784 22.0389 34.7784C21.6636 34.7784 21.3419 34.7248 21.0738 34.6176L19.8941 34.0814H19.8405L16.1942 32.3119C16.0334 32.2582 15.8725 32.2582 15.7117 32.3119C15.5508 32.3655 15.4436 32.4727 15.3899 32.58C15.2827 32.8481 15.3899 33.1698 15.658 33.277L16.6768 33.706L19.3579 34.9393H19.4115C19.8941 35.1538 20.2158 35.5827 20.2158 36.0117C20.2158 36.119 20.2158 36.2262 20.1622 36.3334C19.9477 36.8697 19.197 37.0305 18.6072 36.7088L14.532 34.7784H14.4784C11.8509 33.5452 9.43801 32.0974 7.34679 30.4888L11.3147 21.1587C11.7973 21.2123 12.2799 21.3196 12.8161 21.4804C12.3872 22.0703 12.0118 22.7673 11.7437 23.5717C11.4756 24.376 11.6901 25.2875 12.3872 25.7701C12.7089 25.9846 13.0842 26.1455 13.5132 26.1455C13.9422 26.1455 14.3175 26.0382 14.5856 25.7701C14.5856 25.7701 14.6392 25.7701 14.6392 25.7165L16.516 23.947C16.8377 23.6789 17.213 23.4644 17.642 23.4108L18.9825 24.6977C19.0362 24.7513 19.0898 24.8049 19.1434 24.8049L25.2026 27.5396C25.6852 27.7541 26.0069 28.1831 26.0069 28.612C26.0069 28.7193 26.0069 28.8265 25.9533 28.9337C25.6852 29.5236 25.0953 29.7381 24.4519 29.5236ZM29.0097 29.7917C27.9372 30.2207 26.8112 30.596 25.6852 30.9177C25.6315 30.8105 25.5779 30.7032 25.5779 30.596C25.9533 30.4888 26.3286 30.2743 26.5431 30.0062C26.6503 29.8453 26.8112 29.6844 26.8648 29.5236C26.9721 29.2555 27.0257 29.041 27.0257 28.7729C27.0257 27.915 26.4358 27.1106 25.5779 26.6817L19.5724 23.947L19.0898 23.518H21.5563C21.8244 23.518 22.0926 23.2499 22.0926 22.9818C22.0926 22.6601 21.8244 22.4456 21.5563 22.4456H17.7493C16.9986 22.4456 16.3015 22.7673 15.7653 23.2499L13.8885 24.9658C13.6204 25.1267 13.2451 25.1267 12.977 24.9658C12.7089 24.7513 12.6016 24.376 12.7089 24.0006C13.0306 23.0891 13.5132 22.3384 14.103 21.6949C16.1942 19.4428 20.0013 18.7994 25.4707 19.7646H25.5779C26.2214 19.7646 26.9184 19.7646 27.5083 19.8718L29.0097 29.7917ZM31.9588 30.2743H31.8516C31.5835 30.2743 31.369 30.0598 31.3154 29.7917L31.1545 28.8801C31.1545 28.5584 31.369 28.2903 31.6907 28.2367C31.9588 28.1831 32.2805 28.3975 32.2805 28.6656L32.4414 29.5772C32.495 29.9525 32.2805 30.2207 31.9588 30.2743ZM23.8084 5.98398H21.5563V5.44777C21.5563 4.64345 20.9129 4 20.1086 4H16.0334C15.658 4 15.2827 4.16086 15.0146 4.42897C14.7465 4.69707 14.5856 5.12604 14.5856 5.50139V5.98398H12.3335C11.4756 5.98398 10.7249 6.68105 10.7249 7.5926V15.3676C10.7249 16.2256 11.4756 16.9763 12.3335 16.9763H23.8084C24.72 16.9763 25.417 16.2256 25.417 15.3676V7.5926C25.417 6.73467 24.72 5.98398 23.8084 5.98398ZM16.087 11.1316L17.7493 11.5069H17.9637L20.1622 11.078V12.5794H16.1406V11.1316H16.087ZM15.7653 5.23328C15.8189 5.17966 15.9261 5.12604 16.0334 5.12604H20.1086C20.3231 5.12604 20.4839 5.2869 20.4839 5.50139V6.0376H15.658V5.50139C15.658 5.39415 15.7117 5.2869 15.7653 5.23328ZM24.3446 15.3676C24.3446 15.6357 24.0765 15.9039 23.8084 15.9039H12.3335C12.0654 15.9039 11.7973 15.6357 11.7973 15.3676V10.1664L15.0146 10.8635V13.0619C15.0146 13.33 15.2827 13.5982 15.5508 13.5982H20.6448C20.9665 13.5982 21.181 13.33 21.181 13.0619V10.8099L24.3983 10.1664C24.3983 10.1664 24.3983 15.3676 24.3446 15.3676Z" fill="#3299CA"/>
</g>
<defs>
<clipPath id="clip0_1401_9759">
<rect width="35.3898" height="35.3898" fill="white" transform="translate(0.110229 0.779663)"/>
</clipPath>
</defs>
</svg>
