<svg width="19" height="14" viewBox="0 0 19 14" fill="none" xmlns="http://www.w3.org/2000/svg">
<path d="M17.2778 0.333344H1.72223C1.42754 0.333344 1.14493 0.450407 0.936551 0.65878C0.728178 0.867154 0.611115 1.14977 0.611115 1.44445V12.5556C0.611115 12.8503 0.728178 13.1329 0.936551 13.3412C1.14493 13.5496 1.42754 13.6667 1.72223 13.6667H17.2778C17.5725 13.6667 17.8551 13.5496 18.0635 13.3412C18.2718 13.1329 18.3889 12.8503 18.3889 12.5556V1.44445C18.3889 1.14977 18.2718 0.867154 18.0635 0.65878C17.8551 0.450407 17.5725 0.333344 17.2778 0.333344ZM16.4222 12.5556H2.64445L6.53334 8.53334L5.73334 7.76112L1.72223 11.9111V2.2889L8.62778 9.16112C8.83596 9.36807 9.11757 9.48422 9.41111 9.48422C9.70465 9.48422 9.98627 9.36807 10.1944 9.16112L17.2778 2.11668V11.8389L13.1889 7.75001L12.4056 8.53334L16.4222 12.5556ZM2.45 1.44445H16.3778L9.41111 8.37223L2.45 1.44445Z" fill="black"/>
</svg>
