<svg width="26" height="26" viewBox="0 0 26 26" fill="none" xmlns="http://www.w3.org/2000/svg">
<g filter="url(#filter0_d_1152_7165)">
<circle cx="13" cy="11" r="10" fill="white"/>
<circle cx="13" cy="11" r="9.5" stroke="#DCDCDC"/>
</g>
<path d="M8.03232 10.2617C8.00026 10.1843 7.99186 10.0991 8.00821 10.017C8.02455 9.93478 8.06489 9.85929 8.12414 9.80003L10.0519 7.87231C10.2174 7.70679 10.4856 7.70679 10.6511 7.87231C10.8166 8.03774 10.8166 8.30606 10.6511 8.47149L9.44672 9.67589H17.5763C17.8103 9.67589 18 9.86558 18 10.0996C18 10.3337 17.8103 10.5233 17.5763 10.5233H8.42377C8.33997 10.5233 8.25805 10.4985 8.18837 10.4519C8.11869 10.4054 8.06439 10.3392 8.03232 10.2617ZM17.5762 11.4767H8.42373C8.18973 11.4767 8 11.6664 8 11.9005C8 12.1345 8.18973 12.3242 8.42373 12.3242H16.5533L15.3488 13.5286C15.1834 13.694 15.1834 13.9624 15.3488 14.1278C15.3881 14.1672 15.4349 14.1985 15.4863 14.2198C15.5377 14.2411 15.5928 14.252 15.6485 14.2519C15.7041 14.252 15.7593 14.2411 15.8107 14.2198C15.8621 14.1984 15.9088 14.1672 15.9481 14.1278L17.8759 12.2001C17.9351 12.1408 17.9755 12.0653 17.9918 11.9831C18.0081 11.9009 17.9997 11.8157 17.9677 11.7383C17.9356 11.6609 17.8813 11.5947 17.8116 11.5482C17.7419 11.5016 17.66 11.4768 17.5762 11.4767Z" fill="black"/>
<defs>
<filter id="filter0_d_1152_7165" x="0" y="0" width="26" height="26" filterUnits="userSpaceOnUse" color-interpolation-filters="sRGB">
<feFlood flood-opacity="0" result="BackgroundImageFix"/>
<feColorMatrix in="SourceAlpha" type="matrix" values="0 0 0 0 0 0 0 0 0 0 0 0 0 0 0 0 0 0 127 0" result="hardAlpha"/>
<feOffset dy="2"/>
<feGaussianBlur stdDeviation="1.5"/>
<feComposite in2="hardAlpha" operator="out"/>
<feColorMatrix type="matrix" values="0 0 0 0 0 0 0 0 0 0 0 0 0 0 0 0 0 0 0.25 0"/>
<feBlend mode="normal" in2="BackgroundImageFix" result="effect1_dropShadow_1152_7165"/>
<feBlend mode="normal" in="SourceGraphic" in2="effect1_dropShadow_1152_7165" result="shape"/>
</filter>
</defs>
</svg>
