<svg width="194" height="58" viewBox="0 0 194 58" fill="none" xmlns="http://www.w3.org/2000/svg">
<g clip-path="url(#clip0_4439_12461)">
<path fill-rule="evenodd" clip-rule="evenodd" d="M186.812 57.3182H7.18783C3.22631 57.3182 0 54.0878 0 50.1534V7.16477C0 3.21611 3.22631 0 7.18783 0H186.812C190.77 0 194 3.21611 194 7.16477V50.1534C194 54.0878 190.77 57.3182 186.812 57.3182Z" fill="black"/>
<path d="M102.2 18.9613C100.904 18.9613 99.8122 18.5074 98.9486 17.6141C98.092 16.7457 97.6138 15.5486 97.6352 14.3265C97.6352 13.0222 98.0777 11.918 98.9486 11.0425C99.8087 10.1491 100.901 9.69531 102.196 9.69531C103.478 9.69531 104.57 10.1491 105.448 11.0425C106.318 11.9466 106.761 13.0508 106.761 14.3265C106.747 15.6344 106.304 16.7386 105.448 17.6105C104.587 18.511 103.495 18.9613 102.2 18.9613ZM63.6518 18.9613C62.3849 18.9613 61.2856 18.5146 60.3863 17.632C59.494 16.7529 59.0408 15.6415 59.0408 14.3301C59.0408 13.0186 59.494 11.9073 60.3863 11.0282C61.2678 10.1456 62.367 9.69889 63.6518 9.69889C64.28 9.69889 64.8902 9.82396 65.4756 10.0777C66.0502 10.3242 66.5177 10.6601 66.8639 11.0711L66.9495 11.1747L65.9823 12.1253L65.8824 12.0073C65.3364 11.357 64.6047 11.0389 63.6376 11.0389C62.7739 11.0389 62.0208 11.3462 61.3998 11.9537C60.7753 12.5648 60.4576 13.3652 60.4576 14.3337C60.4576 15.3021 60.7753 16.1025 61.3998 16.7136C62.0208 17.3211 62.7739 17.6284 63.6376 17.6284C64.5583 17.6284 65.3328 17.3211 65.9359 16.7136C66.2928 16.3562 66.5141 15.8559 66.5926 15.2234H63.4912V13.887H67.9238L67.9417 14.0085C67.9738 14.2336 68.0059 14.4659 68.0059 14.6803C68.0059 15.9131 67.6348 16.9101 66.8996 17.6462C66.0644 18.5182 64.9723 18.9613 63.6518 18.9613ZM114.905 18.7719H113.538L109.352 12.0645L109.388 13.2723V18.7683H108.021V9.88828H109.58L109.623 9.95618L113.56 16.274L113.524 15.0698V9.88828H114.905V18.7719ZM91.9285 18.7719H90.5437V11.2248H88.1418V9.88828H94.3268V11.2248H91.9249V18.7719H91.9285ZM87.0141 18.7719H85.6329V9.88828H87.0141V18.7719ZM79.2516 18.7719H77.8704V11.2248H75.4686V9.88828H81.6535V11.2248H79.2516V18.7719ZM74.5942 18.7576H69.2979V9.88828H74.5942V11.2248H70.6826V13.6618H74.2123V14.984H70.6826V17.4211H74.5942V18.7576ZM99.9621 16.6957C100.58 17.3139 101.329 17.6248 102.2 17.6248C103.096 17.6248 103.827 17.3211 104.438 16.6957C105.044 16.0882 105.351 15.2913 105.351 14.3301C105.351 13.3688 105.044 12.5684 104.441 11.9645C103.824 11.3462 103.071 11.0354 102.203 11.0354C101.308 11.0354 100.576 11.3391 99.9693 11.9645C99.3626 12.5719 99.0556 13.3688 99.0556 14.3301C99.0556 15.2913 99.359 16.0918 99.9621 16.6957Z" fill="white"/>
<path fill-rule="evenodd" clip-rule="evenodd" d="M97.5067 31.1744C94.1341 31.1744 91.4003 33.7365 91.4003 37.2707C91.4003 40.7727 94.1519 43.367 97.5067 43.367C100.879 43.367 103.613 40.787 103.613 37.2707C103.613 33.7365 100.879 31.1744 97.5067 31.1744ZM97.5067 40.9513C95.6616 40.9513 94.0734 39.4219 94.0734 37.2564C94.0734 35.0587 95.6651 33.5614 97.5067 33.5614C99.3518 33.5614 100.94 35.0587 100.94 37.2564C100.944 39.4362 99.3518 40.9513 97.5067 40.9513ZM84.1839 31.1744C80.8113 31.1744 78.0774 33.7365 78.0774 37.2707C78.0774 40.7727 80.8291 43.367 84.1839 43.367C87.5565 43.367 90.2903 40.787 90.2903 37.2707C90.2903 33.7365 87.553 31.1744 84.1839 31.1744ZM84.1839 40.9513C82.3388 40.9513 80.7506 39.4219 80.7506 37.2564C80.7506 35.0587 82.3423 33.5614 84.1839 33.5614C86.029 33.5614 87.6172 35.0587 87.6172 37.2564C87.6172 39.4362 86.029 40.9513 84.1839 40.9513ZM68.3307 33.0361V35.6162H74.5157C74.3265 37.0634 73.8483 38.1319 73.1166 38.8644C72.2101 39.7721 70.8111 40.7584 68.345 40.7584C64.5441 40.7584 61.5711 37.6852 61.5711 33.8795C61.5711 30.0737 64.5441 27.0006 68.345 27.0006C70.3971 27.0006 71.8925 27.8117 73.0024 28.8481L74.8297 27.0184C73.2879 25.539 71.2358 24.4062 68.3593 24.4062C63.145 24.4062 58.7695 28.6587 58.7695 33.8652C58.7695 39.086 63.1415 43.3241 68.3593 43.3241C71.1751 43.3241 73.2879 42.4022 74.9582 40.6655C76.6606 38.9609 77.1995 36.556 77.1995 34.6156C77.1995 34.0117 77.1531 33.4685 77.0567 33.0076H68.3271C68.3307 33.004 68.3307 33.0361 68.3307 33.0361ZM133.175 35.0444C132.664 33.6758 131.122 31.1601 127.96 31.1601C124.827 31.1601 122.222 33.6293 122.222 37.2564C122.222 40.6798 124.798 43.3527 128.264 43.3527C131.048 43.3527 132.668 41.6482 133.335 40.6476L131.269 39.2611C130.584 40.2795 129.631 40.9478 128.278 40.9478C126.911 40.9478 125.955 40.326 125.319 39.1003L133.46 35.7234C133.46 35.7269 133.175 35.0444 133.175 35.0444ZM124.873 37.0813C124.809 34.7264 126.701 33.5293 128.053 33.5293C129.12 33.5293 130.009 34.0546 130.312 34.8193L124.873 37.0813ZM118.26 42.9882H120.933V25.0781H118.26V42.9882ZM113.87 32.5287H113.774C113.171 31.8104 112.025 31.1601 110.562 31.1601C107.525 31.1601 104.727 33.8366 104.727 37.2743C104.727 40.6976 107.51 43.342 110.562 43.342C112.007 43.342 113.171 42.688 113.774 41.9555H113.87V42.831C113.87 45.1573 112.628 46.4116 110.626 46.4116C108.988 46.4116 107.971 45.2323 107.557 44.2461L105.233 45.218C105.901 46.8261 107.682 48.8165 110.623 48.8165C113.756 48.8165 116.411 46.969 116.411 42.4629V31.5246H113.885V32.5287C113.888 32.5287 113.87 32.5287 113.87 32.5287ZM110.801 40.9513C108.956 40.9513 107.414 39.4076 107.414 37.2743C107.414 35.123 108.956 33.565 110.801 33.565C112.628 33.565 114.045 35.1409 114.045 37.2743C114.063 39.4076 112.632 40.9513 110.801 40.9513ZM145.691 25.0781H139.299V42.9882H141.972V36.2058H145.694C148.653 36.2058 151.562 34.0581 151.562 30.6491C151.562 27.24 148.664 25.0781 145.691 25.0781ZM145.769 33.7044H141.968V27.558H145.769C147.772 27.558 148.903 29.2125 148.903 30.6312C148.903 32.0356 147.757 33.7044 145.769 33.7044ZM162.276 31.1422C160.334 31.1422 158.332 32.0034 157.504 33.8795L159.874 34.8657C160.384 33.8795 161.319 33.5436 162.308 33.5436C163.693 33.5436 165.092 34.3726 165.124 35.852V36.0414C164.645 35.7698 163.596 35.3553 162.34 35.3553C159.781 35.3553 157.186 36.7561 157.186 39.3826C157.186 41.7875 159.285 43.3313 161.623 43.3313C163.418 43.3313 164.406 42.5201 165.024 41.5803H165.12V42.9668H167.697V36.1057C167.697 32.9111 165.327 31.1422 162.276 31.1422ZM161.94 40.9513C161.066 40.9513 159.842 40.5225 159.842 39.4219C159.842 38.0354 161.369 37.5101 162.672 37.5101C163.85 37.5101 164.406 37.7638 165.106 38.114C164.913 39.7221 163.557 40.937 161.94 40.9513ZM177.097 31.5246L174.028 39.2933H173.932L170.752 31.5246H167.875L172.647 42.3843L169.927 48.4199H172.711L180.052 31.5246H177.097ZM153.036 42.9882H155.709V25.0781H153.036V42.9882Z" fill="white"/>
<path fill-rule="evenodd" clip-rule="evenodd" d="M14.9324 10.7947C14.5184 11.2414 14.2793 11.9239 14.2793 12.8173V44.5031C14.2793 45.3965 14.5184 46.079 14.9467 46.5078L15.0573 46.6043L32.7878 28.8514V28.4547L15.043 10.6982L14.9324 10.7947Z" fill="url(#paint0_linear_4439_12461)"/>
<path fill-rule="evenodd" clip-rule="evenodd" d="M38.6874 34.7872L32.7737 28.866V28.4515L38.6874 22.5303L38.8159 22.6089L45.811 26.5897C47.8132 27.7189 47.8132 29.5843 45.811 30.7278L38.8159 34.7086L38.6874 34.7872Z" fill="url(#paint1_linear_4439_12461)"/>
<path fill-rule="evenodd" clip-rule="evenodd" d="M38.8157 34.709L32.7735 28.6592L14.9324 46.5229C15.5855 47.2233 16.6812 47.3019 17.9053 46.6194L38.8157 34.709Z" fill="url(#paint2_linear_4439_12461)"/>
<path fill-rule="evenodd" clip-rule="evenodd" d="M38.8157 22.6093L17.9053 10.7168C16.6812 10.0164 15.5819 10.1129 14.9324 10.8133L32.7735 28.6592L38.8157 22.6093Z" fill="url(#paint3_linear_4439_12461)"/>
<path opacity="0.2" fill-rule="evenodd" clip-rule="evenodd" d="M38.6873 34.5811L17.9197 46.3949C16.7598 47.0631 15.7248 47.0167 15.0574 46.4092L14.9468 46.52L15.0574 46.6164C15.7248 47.2204 16.7598 47.2704 17.9197 46.6021L38.8301 34.7097L38.6873 34.5811Z" fill="black"/>
<path opacity="0.12" fill-rule="evenodd" clip-rule="evenodd" d="M45.8111 30.5209L38.6697 34.5804L38.7982 34.709L45.7933 30.7282C46.7961 30.1565 47.2886 29.406 47.2886 28.6592C47.228 29.3453 46.7176 29.9956 45.8111 30.5209Z" fill="black"/>
<path opacity="0.25" fill-rule="evenodd" clip-rule="evenodd" d="M17.9053 10.9235L45.8108 26.7968C46.7173 27.3078 47.2277 27.976 47.3062 28.6586C47.3062 27.9117 46.8137 27.1613 45.8108 26.5895L17.9053 10.7163C15.9032 9.56917 14.2793 10.5269 14.2793 12.8174V13.0247C14.2793 10.7305 15.9032 9.79073 17.9053 10.9235Z" fill="white"/>
</g>
<defs>
<linearGradient id="paint0_linear_4439_12461" x1="31.1974" y1="12.4754" x2="2.7915" y2="20.0347" gradientUnits="userSpaceOnUse">
<stop stop-color="#00A0FF"/>
<stop offset="0.00657" stop-color="#00A1FF"/>
<stop offset="0.2601" stop-color="#00BEFF"/>
<stop offset="0.5122" stop-color="#00D2FF"/>
<stop offset="0.7604" stop-color="#00DFFF"/>
<stop offset="1" stop-color="#00E3FF"/>
</linearGradient>
<linearGradient id="paint1_linear_4439_12461" x1="48.422" y1="28.6588" x2="13.7929" y2="28.6588" gradientUnits="userSpaceOnUse">
<stop stop-color="#FFE000"/>
<stop offset="0.4087" stop-color="#FFBD00"/>
<stop offset="0.7754" stop-color="#FFA500"/>
<stop offset="1" stop-color="#FF9C00"/>
</linearGradient>
<linearGradient id="paint2_linear_4439_12461" x1="35.5302" y1="31.9512" x2="12.6872" y2="70.3492" gradientUnits="userSpaceOnUse">
<stop stop-color="#FF3A44"/>
<stop offset="1" stop-color="#C31162"/>
</linearGradient>
<linearGradient id="paint3_linear_4439_12461" x1="10.4398" y1="0.256261" x2="20.631" y2="17.4054" gradientUnits="userSpaceOnUse">
<stop stop-color="#32A071"/>
<stop offset="0.0685" stop-color="#2DA771"/>
<stop offset="0.4762" stop-color="#15CF74"/>
<stop offset="0.8009" stop-color="#06E775"/>
<stop offset="1" stop-color="#00F076"/>
</linearGradient>
<clipPath id="clip0_4439_12461">
<rect width="194" height="57.3182" fill="white"/>
</clipPath>
</defs>
</svg>
