<svg width="67" height="30" viewBox="0 0 67 30" fill="none" xmlns="http://www.w3.org/2000/svg">
<path d="M14.27 23H0.358887V22.624L9.14307 8.06348H6.57959C5.47445 8.06348 4.68262 8.16602 4.2041 8.37109C3.72559 8.56478 3.33822 8.88379 3.04199 9.32812C2.74577 9.76107 2.43815 10.5415 2.11914 11.6694H1.521V7.021H14.9707V7.48242L6.25488 21.9062H7.34863C9.53613 21.9062 11.1141 21.5929 12.0825 20.9663C13.0509 20.3397 13.7801 19.1947 14.27 17.5312H14.7485L14.27 23Z" fill="black"/>
<path d="M30.1042 14.438H21.3372C21.4397 16.5571 22.0037 18.2319 23.0291 19.4624C23.8152 20.408 24.7608 20.8809 25.866 20.8809C26.5496 20.8809 27.1705 20.6929 27.7288 20.3169C28.287 19.9295 28.8852 19.2402 29.5232 18.249L30.1042 18.625C29.2384 20.391 28.2813 21.6442 27.2332 22.3848C26.185 23.1139 24.9716 23.4785 23.593 23.4785C21.2232 23.4785 19.4288 22.5671 18.2097 20.7441C17.2299 19.2744 16.74 17.4515 16.74 15.2754C16.74 12.6094 17.4578 10.4902 18.8933 8.91797C20.3403 7.33431 22.0321 6.54248 23.969 6.54248C25.5868 6.54248 26.9882 7.20898 28.1731 8.54199C29.3694 9.86361 30.0131 11.8289 30.1042 14.438ZM25.9001 13.293C25.9001 11.4587 25.7976 10.1997 25.5925 9.51611C25.3988 8.83252 25.0912 8.31413 24.6697 7.96094C24.4304 7.75586 24.1114 7.65332 23.7126 7.65332C23.1202 7.65332 22.636 7.94385 22.26 8.5249C21.5878 9.5389 21.2517 10.9289 21.2517 12.6948V13.293H25.9001Z" fill="black"/>
<path d="M39.2 7.021V10.644C40.2595 8.99202 41.1881 7.89827 41.9856 7.36279C42.7831 6.81592 43.5522 6.54248 44.2927 6.54248C44.9307 6.54248 45.4377 6.74186 45.8137 7.14062C46.2011 7.52799 46.3948 8.08057 46.3948 8.79834C46.3948 9.56169 46.2068 10.1541 45.8308 10.5757C45.4662 10.9972 45.0219 11.208 44.4978 11.208C43.894 11.208 43.3699 11.0143 42.9255 10.627C42.4812 10.2396 42.2192 10.0231 42.1394 9.97754C42.0255 9.90918 41.8944 9.875 41.7463 9.875C41.4159 9.875 41.1026 10.0003 40.8064 10.251C40.3393 10.6383 39.9861 11.1909 39.7468 11.9087C39.3822 13.0138 39.2 14.2329 39.2 15.5659V19.2402L39.217 20.1973C39.217 20.8467 39.2569 21.2625 39.3367 21.4448C39.4734 21.7524 39.6728 21.9803 39.9348 22.1284C40.2083 22.2651 40.664 22.3506 41.302 22.3848V23H32.6716V22.3848C33.3666 22.3278 33.8337 22.1398 34.073 21.8208C34.3236 21.4904 34.449 20.6302 34.449 19.2402V10.4048C34.449 9.49333 34.4034 8.91227 34.3123 8.66162C34.1983 8.34261 34.0331 8.10905 33.8167 7.96094C33.6002 7.81283 33.2185 7.71029 32.6716 7.65332V7.021H39.2Z" fill="black"/>
<path d="M56.6038 6.60205C58.0732 6.60205 59.4402 6.98145 60.7048 7.74023C61.9695 8.49902 62.927 9.57699 63.5774 10.9741C64.2398 12.3713 64.571 13.9009 64.571 15.563C64.571 17.9598 63.9628 19.9652 62.7463 21.5791C61.2769 23.5303 59.2475 24.5059 56.658 24.5059C54.1166 24.5059 52.1594 23.6146 50.7864 21.832C49.4133 20.0495 48.7268 17.9839 48.7268 15.6353C48.7268 13.2144 49.4254 11.1066 50.8225 9.31201C52.2317 7.50537 54.1588 6.60205 56.6038 6.60205ZM56.676 7.88477C56.0618 7.88477 55.5318 8.11963 55.0862 8.58936C54.6526 9.04704 54.3635 9.9624 54.219 11.3354C54.0865 12.6965 54.0203 14.5934 54.0203 17.0264C54.0203 18.3151 54.1046 19.5195 54.2732 20.6396C54.4057 21.4948 54.6887 22.1452 55.1223 22.5908C55.5559 23.0365 56.0497 23.2593 56.6038 23.2593C57.1458 23.2593 57.5974 23.1087 57.9587 22.8076C58.4285 22.3981 58.7416 21.826 58.8982 21.0913C59.1391 19.9471 59.2595 17.6346 59.2595 14.1538C59.2595 12.1063 59.1451 10.7031 58.9163 9.94434C58.6874 9.1735 58.3502 8.61344 57.9045 8.26416C57.5914 8.01123 57.1819 7.88477 56.676 7.88477Z" fill="white"/>
</svg>
