<svg xmlns="http://www.w3.org/2000/svg" width="20" height="20" viewBox="0 0 22.772 26.154">
    <defs>
        <style>
            .cls-1{fill:#3399CA}
        </style>
    </defs>
    <path id="Forma_1" d="M22.687 21.537a10.678 10.678 0 0 1-3.308-7.747V9.513a6.92 6.92 0 0 0-4.018-6.285 9.046 9.046 0 0 0-1.646-.56v-.29a2.355 2.355 0 1 0-4.715 0v.336a8.91 8.91 0 0 0-1.482.52A7.194 7.194 0 0 0 3.351 9.51v4.28a10.6 10.6 0 0 1-3.158 7.747.48.48 0 0 0-.117.48.473.473 0 0 0 .369.326l4.471.779a58.47 58.47 0 0 0 2.329.36 4.749 4.749 0 0 0 4.2 2.671 4.749 4.749 0 0 0 4.2-2.673c.717-.1 1.479-.213 2.317-.359l4.47-.779a.472.472 0 0 0 .369-.326.478.478 0 0 0-.114-.479zM9.946 2.378a1.413 1.413 0 1 1 2.826 0v.092a9.416 9.416 0 0 0-2.826.024zM6.178 9.986a.474.474 0 0 1-.468-.478 4.8 4.8 0 0 1 2.8-4.115 7.138 7.138 0 0 1 5.874 0 .478.478 0 0 1 .233.63.469.469 0 0 1-.625.234 6.182 6.182 0 0 0-5.087 0 3.831 3.831 0 0 0-2.256 3.256.474.474 0 0 1-.471.473zm8.293 13.637a3.687 3.687 0 0 1-6.05 0c.187.019.367.035.548.05l.26.024.2.013a26.77 26.77 0 0 0 4 0l.235-.016.313-.028c.16-.014.318-.028.483-.045z" class="cls-1" data-name="Forma 1" transform="translate(-.054)"/>
</svg>
