<svg width="20" height="21" viewBox="0 0 20 21" fill="none" xmlns="http://www.w3.org/2000/svg">
<path d="M10.5 14.3333H11.8333M16.5 11.6667V10.3333C16.5 9.97971 16.3595 9.64057 16.1095 9.39052C15.8594 9.14048 15.5203 9 15.1667 9H1.83333C1.47971 9 1.14057 9.14048 0.890524 9.39052C0.640476 9.64057 0.5 9.97971 0.5 10.3333V18.3333C0.5 18.687 0.640476 19.0261 0.890524 19.2761C1.14057 19.5262 1.47971 19.6667 1.83333 19.6667H15.1667C15.5203 19.6667 15.8594 19.5262 16.1095 19.2761C16.3595 19.0261 16.5 18.687 16.5 18.3333V17V11.6667ZM16.5 11.6667H11.1667C10.4594 11.6667 9.78114 11.9476 9.28105 12.4477C8.78095 12.9478 8.5 13.6261 8.5 14.3333C8.5 15.0406 8.78095 15.7189 9.28105 16.219C9.78114 16.719 10.4594 17 11.1667 17H16.5V11.6667ZM16.5 11.6667C17.2072 11.6667 17.8855 11.9476 18.3856 12.4477C18.8857 12.9478 19.1667 13.6261 19.1667 14.3333C19.1667 15.0406 18.8857 15.7189 18.3856 16.219C17.8855 16.719 17.2072 17 16.5 17V11.6667ZM4.5 9V5C4.5 3.93913 4.92143 2.92172 5.67157 2.17157C6.42172 1.42143 7.43913 1 8.5 1C9.56087 1 10.5783 1.42143 11.3284 2.17157C12.0786 2.92172 12.5 3.93913 12.5 5V9H4.5ZM15.8333 14.3333H17.1667H15.8333ZM13.1667 14.3333H14.5H13.1667Z" stroke="url(#paint0_linear_858_3502)"/>
<path d="M10.5 14.3333H11.8333M16.5 11.6667V10.3333C16.5 9.97971 16.3595 9.64057 16.1095 9.39052C15.8594 9.14048 15.5203 9 15.1667 9H1.83333C1.47971 9 1.14057 9.14048 0.890524 9.39052C0.640476 9.64057 0.5 9.97971 0.5 10.3333V18.3333C0.5 18.687 0.640476 19.0261 0.890524 19.2761C1.14057 19.5262 1.47971 19.6667 1.83333 19.6667H15.1667C15.5203 19.6667 15.8594 19.5262 16.1095 19.2761C16.3595 19.0261 16.5 18.687 16.5 18.3333V17V11.6667ZM16.5 11.6667H11.1667C10.4594 11.6667 9.78114 11.9476 9.28105 12.4477C8.78095 12.9478 8.5 13.6261 8.5 14.3333C8.5 15.0406 8.78095 15.7189 9.28105 16.219C9.78114 16.719 10.4594 17 11.1667 17H16.5V11.6667ZM16.5 11.6667C17.2072 11.6667 17.8855 11.9476 18.3856 12.4477C18.8857 12.9478 19.1667 13.6261 19.1667 14.3333C19.1667 15.0406 18.8857 15.7189 18.3856 16.219C17.8855 16.719 17.2072 17 16.5 17V11.6667ZM4.5 9V5C4.5 3.93913 4.92143 2.92172 5.67157 2.17157C6.42172 1.42143 7.43913 1 8.5 1C9.56087 1 10.5783 1.42143 11.3284 2.17157C12.0786 2.92172 12.5 3.93913 12.5 5V9H4.5ZM15.8333 14.3333H17.1667H15.8333ZM13.1667 14.3333H14.5H13.1667Z" stroke="black"/>
<defs>
<linearGradient id="paint0_linear_858_3502" x1="9.83333" y1="1" x2="9.83333" y2="19.6667" gradientUnits="userSpaceOnUse">
<stop stop-color="#D8BB3C"/>
<stop offset="0.515625" stop-color="#FFE369"/>
<stop offset="1" stop-color="#BE8F30"/>
</linearGradient>
</defs>
</svg>
