<svg width="48" height="48" viewBox="0 0 48 48" fill="none" xmlns="http://www.w3.org/2000/svg">
<path d="M26.0566 34.3125C27.0921 34.3125 27.9316 33.473 27.9316 32.4375C27.9316 31.402 27.0921 30.5625 26.0566 30.5625C25.0211 30.5625 24.1816 31.402 24.1816 32.4375C24.1816 33.473 25.0211 34.3125 26.0566 34.3125Z" fill="white"/>
<path d="M32.3378 44.2499H8.99409C6.92634 44.2499 5.24409 42.5677 5.24409 40.4999V25.1249C5.24409 23.0572 6.92634 21.3749 8.99409 21.3749H35.9941C36.421 21.3749 36.7598 21.4126 37.0298 21.4899C38.0252 21.7751 39.0634 21.1993 39.3487 20.2039C39.6338 19.2084 39.058 18.1702 38.0626 17.885C37.452 17.71 36.7754 17.625 35.9941 17.625H33.7406V11.0124C33.7406 4.94016 28.6939 0 22.4906 0C16.2874 0 11.2406 4.94016 11.2406 11.0124V17.625H8.99409C4.85859 17.625 1.49409 20.9895 1.49409 25.125V40.5C1.49409 44.6355 4.85859 48 8.99409 48H32.3378C33.3734 48 34.2128 47.1606 34.2128 46.125C34.2128 45.0894 33.3734 44.25 32.3378 44.2499ZM14.9906 11.0124C14.9906 7.00791 18.3551 3.75 22.4906 3.75C26.6261 3.75 29.9906 7.00791 29.9906 11.0124V17.625H14.9906V11.0124Z" fill="white"/>
<path d="M19.0253 34.3125C20.0609 34.3125 20.9003 33.473 20.9003 32.4375C20.9003 31.402 20.0609 30.5625 19.0253 30.5625C17.9898 30.5625 17.1503 31.402 17.1503 32.4375C17.1503 33.473 17.9898 34.3125 19.0253 34.3125Z" fill="white"/>
<path d="M46.5043 31.0509C46.4632 27.4145 43.4921 24.4688 39.8461 24.4688C36.1747 24.4688 33.1875 27.4558 33.1875 31.1273C33.1875 32.1629 34.0269 33.0023 35.0625 33.0023C36.0981 33.0023 36.9375 32.1629 36.9375 31.1273C36.9375 29.5236 38.2423 28.2188 39.8462 28.2188C41.4501 28.2188 42.7548 29.5236 42.7548 31.1273C42.7548 31.1444 42.755 31.1614 42.7554 31.1782C42.7463 31.7404 42.5744 32.2879 42.2605 32.7544C41.9467 33.2209 41.5043 33.5863 40.9869 33.8065C39.155 34.5889 37.9712 36.3957 37.9712 38.4098V40.0312C37.9712 41.0668 38.8106 41.9062 39.8462 41.9062C40.8818 41.9062 41.7212 41.0668 41.7212 40.0312V38.4098C41.7212 37.8999 42.0111 37.4468 42.4595 37.2554C43.661 36.7438 44.6854 35.8899 45.4049 34.8001C46.1245 33.7103 46.5074 32.4329 46.5059 31.127C46.5059 31.1015 46.5053 31.0762 46.5043 31.0509Z" fill="white"/>
<path d="M39.8378 48C40.8734 48 41.7128 47.1605 41.7128 46.125C41.7128 45.0895 40.8734 44.25 39.8378 44.25C38.8023 44.25 37.9628 45.0895 37.9628 46.125C37.9628 47.1605 38.8023 48 39.8378 48Z" fill="white"/>
<path d="M11.9941 34.3125C13.0296 34.3125 13.8691 33.473 13.8691 32.4375C13.8691 31.402 13.0296 30.5625 11.9941 30.5625C10.9586 30.5625 10.1191 31.402 10.1191 32.4375C10.1191 33.473 10.9586 34.3125 11.9941 34.3125Z" fill="white"/>
</svg>
