<svg width="36" height="36" viewBox="0 0 36 36" fill="none" xmlns="http://www.w3.org/2000/svg">
<path d="M17.1322 30.2299C17.2825 30.3137 17.4517 30.3577 17.6238 30.3577C17.7958 30.3577 17.965 30.3137 18.1153 30.2299L28.2309 24.3894C28.3804 24.3031 28.5045 24.179 28.5908 24.0295C28.677 23.8801 28.7225 23.7105 28.7225 23.5379V11.8555C28.7198 11.6835 28.6732 11.515 28.5872 11.366C28.5012 11.217 28.3786 11.0925 28.2309 11.0041L18.1153 5.16356C17.9658 5.0774 17.7963 5.03204 17.6238 5.03204C17.4512 5.03204 17.2817 5.0774 17.1322 5.16356L7.0159 11.0041C6.86833 11.0925 6.74574 11.2171 6.65973 11.3661C6.57372 11.5151 6.52713 11.6835 6.52438 11.8555V23.5379C6.52438 23.7105 6.56981 23.8801 6.65609 24.0295C6.74237 24.179 6.86646 24.3031 7.0159 24.3894L17.1322 30.2299ZM26.7564 22.9703L18.6068 27.6757V18.2637L23.452 15.4663L23.4572 15.463L26.7564 13.5583V22.9703ZM17.6238 7.15017L25.7733 11.8562L22.9696 13.4751L14.8201 8.76909L17.6238 7.15017ZM12.8546 9.90365L21.0042 14.6097L17.6238 16.5615L9.47355 11.8555L12.8546 9.90365ZM8.48984 13.5583L16.6407 18.2643V27.6757L8.49049 22.9697L8.48984 13.5583ZM13.7741 17.9471L11.5314 16.652C11.4196 16.5864 11.2959 16.5436 11.1674 16.526C11.039 16.5085 10.9083 16.5165 10.783 16.5496C10.6576 16.5828 10.5401 16.6404 10.4371 16.7191C10.3341 16.7979 10.2477 16.8963 10.1829 17.0085C10.1181 17.1208 10.0761 17.2448 10.0594 17.3734C10.0427 17.502 10.0516 17.6326 10.0855 17.7577C10.1195 17.8828 10.1779 18 10.2573 18.1025C10.3367 18.205 10.4357 18.2907 10.5484 18.3548L12.791 19.6499C12.9029 19.7155 13.0266 19.7583 13.155 19.7759C13.2835 19.7934 13.4141 19.7854 13.5395 19.7523C13.6648 19.7191 13.7824 19.6615 13.8854 19.5828C13.9883 19.504 14.0747 19.4057 14.1396 19.2934C14.2044 19.1811 14.2464 19.0571 14.2631 18.9285C14.2798 18.7999 14.2709 18.6693 14.2369 18.5442C14.203 18.4191 14.1446 18.3019 14.0652 18.1994C13.9857 18.0969 13.8868 18.0112 13.7741 17.9471ZM32.8762 27.2254C32.8301 26.9994 32.709 26.7956 32.5326 26.647C32.3562 26.4984 32.1348 26.4138 31.9043 26.4068L28.1621 26.4186C28.033 26.4188 27.9052 26.4444 27.7861 26.494C27.6669 26.5436 27.5586 26.6162 27.4675 26.7077C27.3764 26.7991 27.3041 26.9076 27.2549 27.027C27.2057 27.1464 27.1805 27.2743 27.1807 27.4034C27.1809 27.5325 27.2066 27.6603 27.2562 27.7795C27.3058 27.8987 27.3784 28.0069 27.4698 28.0981C27.5612 28.1892 27.6697 28.2614 27.7891 28.3107C27.9084 28.3599 28.0363 28.3851 28.1654 28.3849H28.168L29.8379 28.3796C27.1787 31.25 23.5451 33.026 19.6468 33.361C15.7485 33.696 11.8653 32.5659 8.75541 30.1914C5.6455 27.8168 3.53218 24.3683 2.82808 20.5192C2.12398 16.67 2.87965 12.6966 4.94755 9.37471C5.01597 9.26523 5.06216 9.14334 5.08348 9.016C5.1048 8.88866 5.10083 8.75838 5.0718 8.63257C5.04277 8.50677 4.98925 8.38792 4.9143 8.2828C4.83934 8.17768 4.74441 8.08836 4.63494 8.01993C4.52546 7.95151 4.40358 7.90531 4.27626 7.88399C4.14894 7.86267 4.01866 7.86664 3.89287 7.89567C3.76708 7.9247 3.64823 7.97823 3.54313 8.05319C3.43802 8.12816 3.34871 8.22309 3.28028 8.33257C0.949728 12.0716 0.0977011 16.5456 0.890847 20.8796C1.68399 25.2136 4.06526 29.0958 7.56891 31.767C11.0726 34.4381 15.4466 35.706 19.8354 35.3227C24.2243 34.9394 28.3124 32.9325 31.3001 29.6944L31.5714 31.2976C31.6102 31.5264 31.7287 31.734 31.9058 31.8838C32.083 32.0336 32.3074 32.116 32.5394 32.1162C32.5949 32.1164 32.6504 32.1118 32.7052 32.1025C32.8325 32.0809 32.9543 32.0344 33.0636 31.9658C33.1729 31.8971 33.2677 31.8075 33.3424 31.7023C33.4172 31.597 33.4704 31.478 33.4992 31.3521C33.5279 31.2262 33.5316 31.0959 33.51 30.9686L32.8762 27.2254ZM18.2975 6.33911e-05C14.3507 -0.0105418 10.5156 1.30981 7.41175 3.74783L7.41634 2.18593C7.41668 2.05677 7.39157 1.9288 7.34245 1.80934C7.29332 1.68989 7.22114 1.58128 7.13003 1.48974C7.03892 1.39819 6.93066 1.3255 6.81145 1.27581C6.69223 1.22613 6.5644 1.20042 6.43524 1.20016H6.43262C6.17235 1.20016 5.92271 1.30338 5.73842 1.48719C5.55414 1.671 5.45026 1.92039 5.44956 2.18069L5.43908 5.92386C5.44331 6.15969 5.53009 6.38657 5.68433 6.56501C5.83856 6.74345 6.05048 6.86215 6.2832 6.90045L10.0254 7.43529C10.0719 7.44146 10.1187 7.44453 10.1656 7.44446C10.4142 7.4442 10.6535 7.34975 10.8353 7.18013C11.017 7.01051 11.1278 6.77832 11.1452 6.53031C11.1627 6.2823 11.0855 6.03689 10.9293 5.84349C10.7731 5.65009 10.5494 5.52307 10.3032 5.488L8.67465 5.25532C11.4353 3.12256 14.8265 1.96789 18.3149 1.97286C21.8034 1.97783 25.1912 3.14216 27.9458 5.28277C30.7004 7.42339 32.6655 10.4189 33.5321 13.7983C34.3988 17.1777 34.1178 20.7493 32.7334 23.9515C32.6791 24.0704 32.6491 24.1989 32.6451 24.3295C32.6411 24.4602 32.6632 24.5903 32.7101 24.7123C32.7569 24.8342 32.8277 24.9457 32.9181 25.04C33.0085 25.1343 33.1168 25.2097 33.2367 25.2617C33.3566 25.3136 33.4857 25.3412 33.6163 25.3427C33.747 25.3442 33.8766 25.3197 33.9977 25.2705C34.1187 25.2213 34.2288 25.1485 34.3214 25.0563C34.414 24.9641 34.4873 24.8543 34.5369 24.7335C35.7015 22.0405 36.1787 19.1003 35.9254 16.1772C35.6722 13.2541 34.6966 10.4397 33.0863 7.98714C31.476 5.53458 29.2815 3.52068 26.7001 2.12652C24.1187 0.73236 21.2313 0.00164208 18.2975 6.33911e-05Z" fill="#3299CA"/>
</svg>
