<svg width="21" height="20" viewBox="0 0 21 20" fill="none" xmlns="http://www.w3.org/2000/svg">
<path d="M18.3394 16.4605L14.6641 12.7852C15.5489 11.6072 16.0266 10.1733 16.025 8.7C16.025 4.93672 12.9633 1.875 9.2 1.875C5.43672 1.875 2.375 4.93672 2.375 8.7C2.375 12.4633 5.43672 15.525 9.2 15.525C10.6733 15.5266 12.1072 15.0489 13.2852 14.1641L16.9605 17.8394C17.1466 18.0058 17.3892 18.0945 17.6387 18.0876C17.8881 18.0806 18.1255 17.9784 18.3019 17.8019C18.4784 17.6255 18.5806 17.3881 18.5876 17.1387C18.5945 16.8892 18.5058 16.6466 18.3394 16.4605ZM4.325 8.7C4.325 7.73582 4.61091 6.79328 5.14658 5.99159C5.68226 5.18991 6.44363 4.56506 7.33442 4.19609C8.22521 3.82711 9.20541 3.73057 10.1511 3.91867C11.0967 4.10677 11.9654 4.57107 12.6471 5.25285C13.3289 5.93463 13.7932 6.80328 13.9813 7.74893C14.1694 8.69459 14.0729 9.67479 13.7039 10.5656C13.3349 11.4564 12.7101 12.2177 11.9084 12.7534C11.1067 13.2891 10.1642 13.575 9.2 13.575C7.90754 13.5734 6.66847 13.0593 5.75457 12.1454C4.84066 11.2315 4.32655 9.99245 4.325 8.7Z" fill="white"/>
</svg>
