<svg width="12" height="11" viewBox="0 0 12 11" fill="none" xmlns="http://www.w3.org/2000/svg">
<path d="M8.9648 10.4913C8.89244 10.4916 8.82184 10.469 8.76306 10.4268L5.99995 8.42364L3.23685 10.4268C3.17781 10.4697 3.10669 10.4926 3.03377 10.4923C2.96085 10.4921 2.8899 10.4686 2.83118 10.4254C2.77246 10.3821 2.72901 10.3213 2.70712 10.2518C2.68523 10.1822 2.68603 10.1075 2.7094 10.0384L3.78706 6.84647L0.994092 4.93114C0.933594 4.8897 0.887934 4.83 0.863783 4.76076C0.839632 4.69152 0.838255 4.61637 0.859854 4.54629C0.881453 4.47622 0.924896 4.41488 0.983835 4.37125C1.04277 4.32763 1.11412 4.30399 1.18745 4.30379H4.63312L5.67296 1.1037C5.69536 1.03461 5.73907 0.97439 5.79781 0.931681C5.85656 0.888972 5.92732 0.865967 5.99995 0.865967C6.07258 0.865967 6.14335 0.888972 6.20209 0.931681C6.26084 0.97439 6.30454 1.03461 6.32694 1.1037L7.36679 4.30487H10.8125C10.8859 4.30483 10.9574 4.32831 11.0165 4.37185C11.0756 4.4154 11.1192 4.47672 11.141 4.54686C11.1627 4.61699 11.1614 4.69223 11.1373 4.76158C11.1132 4.83092 11.0675 4.89072 11.0069 4.93221L8.21284 6.84647L9.28985 10.0375C9.3073 10.0892 9.31221 10.1443 9.30417 10.1982C9.29614 10.2522 9.27538 10.3034 9.24362 10.3477C9.21187 10.3921 9.17002 10.4282 9.12153 10.4532C9.07305 10.4781 9.01933 10.4912 8.9648 10.4913Z" fill="#FFD90F"/>
</svg>
