<svg width="51" height="40" viewBox="0 0 51 40" fill="none" xmlns="http://www.w3.org/2000/svg">
<path d="M46.5704 11.7613L35.6667 23.0226L32.3625 19.6363L28.7788 23.3638L35.6413 30.4513L50.1796 15.4888L46.5704 11.7613ZM5.16667 11.0001C5.13537 12.3878 5.37694 13.7676 5.87679 15.0562C6.37663 16.3447 7.12435 17.5151 8.07472 18.4967C9.02509 19.4782 10.1584 20.2504 11.406 20.7667C12.6536 21.2829 13.9897 21.5324 15.3333 21.5001C16.677 21.5324 18.0131 21.2829 19.2607 20.7667C20.5083 20.2504 21.6416 19.4782 22.5919 18.4967C23.5423 17.5151 24.29 16.3447 24.7899 15.0562C25.2897 13.7676 25.5313 12.3878 25.5 11.0001C25.5313 9.61233 25.2897 8.23248 24.7899 6.94394C24.29 5.65541 23.5423 4.48498 22.5919 3.50345C21.6416 2.52192 20.5083 1.74968 19.2607 1.23345C18.0131 0.717223 16.677 0.467725 15.3333 0.500053C13.9897 0.467725 12.6536 0.717223 11.406 1.23345C10.1584 1.74968 9.02509 2.52192 8.07472 3.50345C7.12435 4.48498 6.37663 5.65541 5.87679 6.94394C5.37694 8.23248 5.13537 9.61233 5.16667 11.0001ZM20.4167 11.0001C20.4494 11.6984 20.3403 12.3962 20.0964 13.0484C19.8525 13.7007 19.4792 14.293 19.0005 14.7874C18.5217 15.2818 17.9482 15.6673 17.3167 15.9192C16.6851 16.1711 16.0095 16.2838 15.3333 16.2501C14.6571 16.2838 13.9816 16.1711 13.35 15.9192C12.7185 15.6673 12.1449 15.2818 11.6662 14.7874C11.1875 14.293 10.8142 13.7007 10.5703 13.0484C10.3264 12.3962 10.2173 11.6984 10.25 11.0001C10.2173 10.3017 10.3264 9.60395 10.5703 8.9517C10.8142 8.29945 11.1875 7.7071 11.6662 7.2127C12.1449 6.71829 12.7185 6.33276 13.35 6.08087C13.9816 5.82897 14.6571 5.71629 15.3333 5.75005C16.0095 5.71629 16.6851 5.82897 17.3167 6.08087C17.9482 6.33276 18.5217 6.71829 19.0005 7.2127C19.4792 7.7071 19.8525 8.29945 20.0964 8.9517C20.3403 9.60395 20.4494 10.3017 20.4167 11.0001ZM5.16667 37.2501C5.16667 35.1615 5.97002 33.1584 7.39998 31.6816C8.82994 30.2047 10.7694 29.3751 12.7917 29.3751H17.875C19.8973 29.3751 21.8367 30.2047 23.2667 31.6816C24.6967 33.1584 25.5 35.1615 25.5 37.2501V39.8751H30.5833V37.2501C30.5833 35.5265 30.2546 33.8197 29.616 32.2273C28.9773 30.6349 28.0412 29.188 26.8611 27.9693C25.6811 26.7505 24.2801 25.7837 22.7383 25.1241C21.1964 24.4645 19.5439 24.1251 17.875 24.1251H12.7917C9.42121 24.1251 6.1888 25.5079 3.80552 27.9693C1.42225 30.4307 0.0833359 33.7691 0.0833359 37.2501V39.8751H5.16667V37.2501Z" fill="white"/>
</svg>
