<svg xmlns="http://www.w3.org/2000/svg" fill="none" viewBox="-1.5 -1.5 48 48" height="48" width="48"><g id="wallet--money-payment-finance-wallet"><path id="Subtract" stroke="#666" stroke-linecap="round" stroke-linejoin="round" d="M6.8146875 10.795312500000001c5.595937500000001 -2.90625 12.71625 -5.5875 19.359375 -7.2215625 1.9434375 -0.478125 3.9515624999999996 0.2409375 4.9621875 1.9678125000000002 0.721875 1.2337500000000001 1.603125 2.9250000000000003 2.535 5.135625" stroke-width="3"></path><path id="Rectangle 1096" stroke="#666" stroke-linecap="round" stroke-linejoin="round" d="M27.2475 29.1778125c0.0890625 1.996875 1.6284375 3.4846875 3.624375 3.564375 1.0171875 0.041249999999999995 2.2818750000000003 0.0703125 3.8156250000000003 0.0703125 1.53375 0 2.7984375 -0.029062499999999998 3.8156250000000003 -0.0703125 1.996875 -0.07968750000000001 3.5353125 -1.5675 3.624375 -3.564375 0.035625 -0.8128124999999999 0.06 -1.785 0.06 -2.9278125000000004 0 -1.14375 -0.024374999999999997 -2.1149999999999998 -0.06 -2.9278125000000004 -0.0890625 -1.996875 -1.6284375 -3.4846875 -3.624375 -3.564375A95.731875 95.731875 0 0 0 34.6875 19.6875c-1.53375 0 -2.7984375 0.029062499999999998 -3.8156250000000003 0.0703125 -1.996875 0.07968750000000001 -3.5353125 1.5675 -3.624375 3.564375A66.339375 66.339375 0 0 0 27.1875 26.25c0 1.14375 0.024374999999999997 2.1149999999999998 0.06 2.9278125000000004Z" stroke-width="3"></path><path id="Subtract_2" stroke="#666" stroke-linecap="round" stroke-linejoin="round" d="M38.319375 19.7503125a111.3 111.3 0 0 0 -0.2746875 -4.6987499999999995c-0.19499999999999998 -2.3915625 -2.0521875 -4.190625 -4.445625 -4.3565625C30.8428125 10.50375 26.5903125 10.3125 20.625 10.3125s-10.21875 0.19124999999999998 -12.975 0.38249999999999995c-2.3925 0.16499999999999998 -4.2496875 1.965 -4.4446875 4.3565625C3.00375 17.5209375 2.8125 21.1996875 2.8125 26.25c0 5.0503124999999995 0.19124999999999998 8.728125 0.3928125 11.1984375 0.19499999999999998 2.3915625 2.0521875 4.190625 4.445625 4.3565625C10.40625 41.996249999999996 14.6596875 42.1875 20.625 42.1875s10.21875 -0.19124999999999998 12.9740625 -0.38249999999999995c2.3934375 -0.16499999999999998 4.250624999999999 -1.965 4.445625 -4.3565625 0.1021875 -1.2496875 0.2015625 -2.80875 0.2746875 -4.6987499999999995" stroke-width="3"></path><path id="Vector 1356" stroke="#666" stroke-linecap="round" stroke-linejoin="round" d="m33.75 25.3125 0 1.875" stroke-width="3"></path></g></svg>
