<svg width="35" height="34" viewBox="0 0 35 34" fill="none" xmlns="http://www.w3.org/2000/svg">
<g clip-path="url(#clip0_1401_9773)">
<path d="M6.00355 20.6604C6.22158 20.8069 6.47829 20.885 6.74093 20.8849C7.16925 20.8849 7.5898 20.678 7.84593 20.2953C9.99198 17.0884 13.5794 15.1738 17.4424 15.1738C21.2939 15.1738 24.8754 17.0796 27.023 20.2718C27.4325 20.8804 28.2577 21.0419 28.8663 20.6324C29.4749 20.223 29.6363 19.3977 29.2269 18.7891C27.511 16.2387 25.0509 14.3568 22.2397 13.3501C23.9256 11.9729 25.0039 9.87866 25.0039 7.53711C25.0039 3.3994 21.6377 0.0332031 17.5 0.0332031C13.3623 0.0332031 9.99609 3.3994 9.99609 7.53711C9.99609 9.86186 11.0587 11.943 12.7238 13.3205C9.86859 14.3235 7.37152 16.2282 5.63838 18.818C5.23045 19.4276 5.39394 20.2525 6.00355 20.6604ZM17.5 2.68945C20.173 2.68945 22.3477 4.86413 22.3477 7.53711C22.3477 10.2101 20.173 12.3848 17.5 12.3848C14.827 12.3848 12.6523 10.2101 12.6523 7.53711C12.6523 4.86413 14.827 2.68945 17.5 2.68945ZM22.7964 23.5496L20.8165 24.978C20.5219 25.1905 20.3986 25.5672 20.5111 25.9111L21.3085 28.2221C21.3406 28.3185 21.3549 28.42 21.3508 28.5215C21.3225 29.1422 20.5446 29.5668 19.974 29.1552L17.9941 27.7265C17.8503 27.6227 17.6774 27.567 17.5001 27.5671C17.3267 27.5671 17.1533 27.6202 17.006 27.7265L15.0261 29.1552C14.4555 29.5668 13.6739 29.1422 13.6492 28.5215C13.6456 28.4199 13.6602 28.3185 13.6923 28.2221L14.4889 25.9111C14.6015 25.5672 14.4782 25.1905 14.1836 24.978L12.2036 23.5496C11.5449 23.0744 11.8834 21.9473 12.6977 21.9473H15.145C15.5092 21.9473 15.8319 21.8071 15.9444 21.4632L16.7007 19.1372C16.8265 18.7528 17.1633 18.5605 17.5001 18.5605C17.8369 18.5605 18.1736 18.7528 18.2995 19.1372L19.0557 21.4632C19.1683 21.8071 19.4909 21.9473 19.8551 21.9473H22.3024C23.1166 21.9473 23.4552 23.0744 22.7964 23.5496ZM34.1519 28.1981L32.1719 29.6264C31.8773 29.8389 31.754 30.2156 31.8666 30.5595L32.6639 32.8706C32.6961 32.967 32.7104 33.0684 32.7062 33.1699C32.678 33.7906 31.9001 34.2152 31.3295 33.8036L29.3496 32.3749C29.2023 32.2687 29.0289 32.2155 28.8555 32.2155C28.6821 32.2155 28.5088 32.2687 28.3615 32.3749L26.3816 33.8036C25.811 34.2152 25.0293 33.7906 25.0046 33.1699C25.001 33.0684 25.0157 32.967 25.0478 32.8706L25.8444 30.5595C25.957 30.2156 25.8337 29.8389 25.5391 29.6264L23.5591 28.1981C22.9004 27.7229 23.2389 26.5957 24.0532 26.5957H26.5005C26.8647 26.5957 27.1874 26.4555 27.2999 26.1117L28.0561 23.7857C28.182 23.4012 28.5187 23.209 28.8555 23.209C29.1923 23.209 29.5291 23.4012 29.6549 23.7857L30.4112 26.1117C30.5237 26.4555 30.8464 26.5957 31.2106 26.5957H33.6579C34.4721 26.5957 34.8106 27.7229 34.1519 28.1981ZM11.441 28.1981L9.46099 29.6264C9.16641 29.8389 9.0431 30.2156 9.15566 30.5595L9.953 32.8706C9.98513 32.967 9.99946 33.0684 9.9953 33.1699C9.96707 33.7906 9.18913 34.2152 8.61856 33.8036L6.63859 32.3749C6.4913 32.2687 6.31792 32.2155 6.14453 32.2155C5.97114 32.2155 5.79776 32.2687 5.65047 32.3749L3.67057 33.8036C3.1 34.2152 2.31834 33.7906 2.29363 33.1699C2.29004 33.0684 2.30466 32.967 2.3368 32.8706L3.13341 30.5595C3.24596 30.2156 3.12265 29.8389 2.82807 29.6264L0.848101 28.1981C0.189351 27.7229 0.527891 26.5957 1.34216 26.5957H3.7895C4.15367 26.5957 4.47641 26.4555 4.5889 26.1117L5.34513 23.7857C5.47097 23.4012 5.80772 23.209 6.14453 23.209C6.48134 23.209 6.81809 23.4012 6.94393 23.7857L7.70016 26.1117C7.81272 26.4555 8.13539 26.5957 8.49956 26.5957H10.9469C11.7612 26.5957 12.0997 27.7229 11.441 28.1981Z" fill="#3299CA"/>
</g>
<defs>
<clipPath id="clip0_1401_9773">
<rect width="34" height="34" fill="white" transform="translate(0.5)"/>
</clipPath>
</defs>
</svg>
